<?xml version="1.0" encoding="UTF-8"?>
<svg width="35px" height="35px" viewBox="0 0 35 35" version="1.1" xmlns="http://www.w3.org/2000/svg" xmlns:xlink="http://www.w3.org/1999/xlink">
    <!-- Generator: Sketch 46.2 (44496) - http://www.bohemiancoding.com/sketch -->
    <title>fb-button-35x35</title>
    <desc>Created with Sketch.</desc>
    <defs></defs>
    <g id="id-autorization-registration-2017" stroke="none" stroke-width="1" fill="none" fill-rule="evenodd">
        <g id="f-add-comment-Specs" transform="translate(-577.000000, -550.000000)">
            <g id="f-add-comment-desktop" transform="translate(100.000000, 480.000000)">
                <g id="social-buttons" transform="translate(432.000000, 70.000000)">
                    <g id="fb-button-35x35" transform="translate(45.000000, 0.000000)">
                        <circle id="fb-button" fill="#536C9E" cx="17.5" cy="17.5" r="17.5"></circle>
                        <path d="M21.6610864,9.0037452 L19.5023957,9 C17.0771806,9 15.5099001,10.7387098 15.5099001,13.4298243 L15.5099001,15.4722699 L13.3394331,15.4722699 C13.151879,15.4722699 13,15.6366842 13,15.8394869 L13,18.7987578 C13,19.0015605 13.1520522,19.1657876 13.3394331,19.1657876 L15.5099001,19.1657876 L15.5099001,26.6329703 C15.5099001,26.8357729 15.6617791,27 15.8493333,27 L18.6811753,27 C18.8687294,27 19.0206084,26.8355857 19.0206084,26.6329703 L19.0206084,19.1657876 L21.5583906,19.1657876 C21.7459447,19.1657876 21.8978237,19.0015605 21.8978237,18.7987578 L21.8988628,15.8394869 C21.8988628,15.7421117 21.8630145,15.6488562 21.7994574,15.5799444 C21.7359002,15.5110327 21.6493102,15.4722699 21.5592565,15.4722699 L19.0206084,15.4722699 L19.0206084,13.7408633 C19.0206084,12.9086795 19.2040062,12.4862208 20.2065462,12.4862208 L21.6607401,12.485659 C21.848121,12.485659 22,12.3212447 22,12.1186293 L22,9.37077494 C22,9.16834681 21.8482942,9.00411972 21.6610864,9.0037452 Z" id="fb" fill="#FFFFFF"></path>
                    </g>
                </g>
            </g>
        </g>
    </g>
</svg>