<?xml version="1.0" encoding="UTF-8"?>
<svg width="35px" height="35px" viewBox="0 0 35 35" version="1.1" xmlns="http://www.w3.org/2000/svg" xmlns:xlink="http://www.w3.org/1999/xlink">
    <!-- Generator: Sketch 46.2 (44496) - http://www.bohemiancoding.com/sketch -->
    <title>insta-button-35x35</title>
    <desc>Created with Sketch.</desc>
    <defs></defs>
    <g id="id-autorization-registration-2017" stroke="none" stroke-width="1" fill="none" fill-rule="evenodd">
        <g id="f-add-comment-Specs" transform="translate(-666.000000, -550.000000)">
            <g id="f-add-comment-desktop" transform="translate(100.000000, 480.000000)">
                <g id="social-buttons" transform="translate(432.000000, 70.000000)">
                    <g id="insta-button-35x35" transform="translate(134.000000, 0.000000)">
                        <circle id="insta-button" fill="#CF386D" cx="17.5" cy="17.5" r="17.5"></circle>
                        <g id="instagram-icon" transform="translate(8.000000, 8.000000)" fill-rule="nonzero" fill="#FFFFFF">
                            <path d="M13.3406897,0 L5.66068966,0 C2.53931034,0 0,2.53931034 0,5.66068966 L0,13.3406897 C0,16.4617241 2.53931034,19 5.66068966,19 L13.3406897,19 C16.4617241,19 19,16.4617241 19,13.3406897 L19,5.66068966 C19,2.53931034 16.4617241,0 13.3406897,0 Z M17.0896552,13.3406897 C17.0896552,14.3349771 16.694676,15.2885412 15.9916086,15.9916086 C15.2885412,16.694676 14.3349771,17.0896552 13.3406897,17.0896552 L5.66068966,17.0896552 C4.66634244,17.0897466 3.7126898,16.6948078 3.0095478,15.9917305 C2.3064058,15.2886532 1.91137931,14.3350369 1.91137931,13.3406897 L1.91137931,5.66068966 C1.91128784,4.66628269 2.30627396,3.71257778 3.00942587,3.00942587 C3.71257778,2.30627396 4.66628269,1.91128784 5.66068966,1.91137931 L13.3406897,1.91137931 C14.3350369,1.91137931 15.2886532,2.3064058 15.9917305,3.0095478 C16.6948078,3.7126898 17.0897466,4.66634244 17.0896552,5.66068966 L17.0896552,13.3406897 L17.0896552,13.3406897 Z" id="Shape"></path>
                            <path d="M9.50068966,4.5862069 C6.79068966,4.5862069 4.5862069,6.79068966 4.5862069,9.50068966 C4.5862069,12.2106897 6.79068966,14.4137931 9.50068966,14.4137931 C12.2106897,14.4137931 14.4137931,12.2103448 14.4137931,9.50068966 C14.4137931,6.79103448 12.2103448,4.5862069 9.50068966,4.5862069 Z M9.50068966,12.5034483 C7.84231186,12.5034483 6.49793103,11.1590674 6.49793103,9.50068966 C6.49793103,7.84231186 7.84231186,6.49793103 9.50068966,6.49793103 C11.1590674,6.49793103 12.5034483,7.84231186 12.5034483,9.50068966 C12.5034483,10.2970708 12.1870871,11.0608342 11.6239606,11.6239606 C11.0608342,12.1870871 10.2970708,12.5034483 9.50068966,12.5034483 Z" id="Shape"></path>
                            <circle id="Oval" cx="14.4244828" cy="4.62310345" r="1.17758621"></circle>
                        </g>
                    </g>
                </g>
            </g>
        </g>
    </g>
</svg>