<?xml version="1.0" encoding="UTF-8"?>
<svg width="35px" height="35px" viewBox="0 0 35 35" version="1.1" xmlns="http://www.w3.org/2000/svg" xmlns:xlink="http://www.w3.org/1999/xlink">
    <!-- Generator: Sketch 46.2 (44496) - http://www.bohemiancoding.com/sketch -->
    <title>ok-button-35x35</title>
    <desc>Created with Sketch.</desc>
    <defs></defs>
    <g id="id-autorization-registration-2017" stroke="none" stroke-width="1" fill="none" fill-rule="evenodd">
        <g id="f-add-comment-Specs" transform="translate(-622.000000, -550.000000)">
            <g id="f-add-comment-desktop" transform="translate(100.000000, 480.000000)">
                <g id="social-buttons" transform="translate(432.000000, 70.000000)">
                    <g id="ok-button-35x35" transform="translate(90.000000, 0.000000)">
                        <circle id="fb-button" fill="#FF8A45" cx="17.5" cy="17.5" r="17.5"></circle>
                        <path d="M16.5982703,22.3779337 C15.1781363,22.2241795 13.8976751,21.8611042 12.8013976,20.9710422 C12.6653702,20.8603073 12.52493,20.7535556 12.4007978,20.629875 C11.9209606,20.1514841 11.8726123,19.6035851 12.2522996,19.0389563 C12.5771155,18.5557855 13.1223763,18.4265283 13.6891253,18.7039632 C13.7988681,18.7577373 13.9034308,18.8248555 14.0035808,18.8969527 C16.0466782,20.3542326 18.853371,20.3944636 20.9041427,18.9624775 C21.1073205,18.8007567 21.3245039,18.6689104 21.5762218,18.6015931 C22.0656519,18.471141 22.5220825,18.6577572 22.7847363,19.1022903 C23.0848024,19.6099583 23.0809652,20.1054773 22.7112546,20.499622 C22.1441219,21.1038843 21.4620662,21.5410484 20.7042265,21.846167 C19.9876363,22.1345558 19.2027447,22.2797461 18.425911,22.3761413 C18.5431364,22.508585 18.5983915,22.5737115 18.6716813,22.6501903 C19.7265174,23.75037 20.7859581,24.8459688 21.8373407,25.9495342 C22.1955399,26.3255551 22.2703646,26.791797 22.0731344,27.2291602 C21.8574858,27.7071528 21.3747707,28.0216321 20.9014567,27.9879735 C20.6015824,27.9664638 20.3677073,27.8115145 20.159925,27.5942271 C19.3639055,26.7627191 18.5529211,25.9465468 17.7730178,25.0993049 C17.5460496,24.8529395 17.4368823,24.8995438 17.2365824,25.1134455 C16.4357665,25.9692514 15.6219042,26.8119125 14.8032455,27.6497937 C14.4356453,28.0260137 13.9982087,28.0937293 13.5718999,27.8788318 C13.118731,27.6507895 12.8303682,27.1706061 12.8526237,26.6880328 C12.8679724,26.3616037 13.0226101,26.1122509 13.2384505,25.8885902 C14.2823507,24.8065344 15.323373,23.7216904 16.364779,22.6378422 C16.433656,22.565745 16.4979285,22.4892662 16.5982703,22.3779337 Z M17.5555228,18.6253956 C15.022036,18.6164332 12.944596,16.4361895 12.959369,13.802052 C12.9739503,11.1388366 15.0527333,8.99264987 17.6111617,9.00001892 C20.1747702,9.00718881 22.2324488,11.1842459 22.2195943,13.875145 C22.206548,16.5039051 20.1147186,18.6345571 17.5555228,18.6253956 Z M19.8580124,13.8084252 C19.8535997,12.500518 18.8501816,11.4592908 17.5927433,11.4580958 C16.3247528,11.4567017 15.3123173,12.5168494 15.3221021,13.8367065 C15.3315032,15.1396346 16.3435549,16.1734927 17.6044466,16.1687128 C18.8615012,16.164132 19.8622333,15.1161333 19.8580124,13.8084252 Z" id="ok-icon" fill="#FFFFFF"></path>
                    </g>
                </g>
            </g>
        </g>
    </g>
</svg>