<?xml version="1.0" encoding="UTF-8"?>
<svg width="35px" height="35px" viewBox="0 0 35 35" version="1.1" xmlns="http://www.w3.org/2000/svg" xmlns:xlink="http://www.w3.org/1999/xlink">
    <!-- Generator: Sketch 46.2 (44496) - http://www.bohemiancoding.com/sketch -->
    <title>vk-button-35x35</title>
    <desc>Created with Sketch.</desc>
    <defs></defs>
    <g id="id-autorization-registration-2017" stroke="none" stroke-width="1" fill="none" fill-rule="evenodd">
        <g id="f-add-comment-Specs" transform="translate(-532.000000, -550.000000)">
            <g id="f-add-comment-desktop" transform="translate(100.000000, 480.000000)">
                <g id="social-buttons" transform="translate(432.000000, 70.000000)">
                    <g id="vk-button-35x35">
                        <circle id="vk-button" fill="#74A0CE" cx="17.5" cy="17.5" r="17.5"></circle>
                        <path d="M26.8939306,22.0310976 C26.8697129,21.9853587 26.8471365,21.9474188 26.8261648,21.9170221 C26.479166,21.3693383 25.8160605,20.6970952 24.8372495,19.9001009 L24.8165697,19.8818501 L24.8062115,19.8729005 L24.7957439,19.8637272 L24.7852398,19.8637272 C24.3410055,19.4926063 24.0596935,19.2430721 23.9418875,19.1153165 C23.7263354,18.8719512 23.6780459,18.6256134 23.7958519,18.3760153 C23.879082,18.1874343 24.1917238,17.7891769 24.7330478,17.1806997 C25.0177881,16.8582263 25.2432973,16.5997745 25.4098304,16.4050567 C26.6109045,15.0057222 27.1316215,14.1115288 26.9718722,13.7221252 L26.9098326,13.6311269 C26.8681446,13.5763425 26.7605509,13.5262247 26.5871974,13.4805178 C26.4134427,13.4349068 26.1913619,13.4273635 25.9205541,13.4577602 L22.9216439,13.4759151 C22.8730626,13.4608287 22.803692,13.462235 22.7133133,13.4805178 C22.623044,13.4988006 22.5778911,13.5079739 22.5778911,13.5079739 L22.525699,13.5308274 L22.4842663,13.5582835 C22.4495446,13.5764384 22.4113579,13.6083693 22.3696699,13.6540123 C22.3282008,13.6994954 22.2935155,13.7528734 22.2657964,13.8136988 C21.9392951,14.5498357 21.5680786,15.2342567 21.1514539,15.8669298 C20.8945784,16.2441876 20.6586747,16.5711358 20.443232,16.8479662 C20.228081,17.1247008 20.0475789,17.3285919 19.901908,17.4592881 C19.7560182,17.5901122 19.6243527,17.6949184 19.506109,17.7740905 C19.3880477,17.8532945 19.2979243,17.8867596 19.2355199,17.8745178 C19.1729697,17.862276 19.1140667,17.8501301 19.0583003,17.8379842 C18.9611742,17.7831999 18.8830502,17.7086944 18.8241473,17.614404 C18.764989,17.5201135 18.725161,17.4014353 18.7043353,17.2584654 C18.6836189,17.1153996 18.6713642,16.9923425 18.6678628,16.8888787 C18.6646168,16.7855427 18.6661122,16.6393765 18.6731513,16.4507956 C18.6803729,16.2621187 18.6836189,16.134459 18.6836189,16.0675288 C18.6836189,15.8363094 18.6887615,15.5853688 18.6990832,15.3146433 C18.7095873,15.0439178 18.7180854,14.8294149 18.7251975,14.6713905 C18.7322732,14.5132062 18.7355557,14.3458486 18.7355557,14.1694136 C18.7355557,13.9929785 18.7233009,13.8546113 18.6990832,13.7541839 C18.6751573,13.6538844 18.6384296,13.5565255 18.5900306,13.4621391 C18.5413399,13.3678487 18.4700728,13.2949094 18.3765574,13.2431295 C18.2828597,13.1914136 18.1663667,13.1503733 18.027735,13.1198807 C17.6597645,13.0469095 17.191203,13.0074353 16.6218317,13.0012985 C15.3306708,12.9891526 14.5010321,13.0622197 14.1330981,13.2204039 C13.9873177,13.2872383 13.8553969,13.3785562 13.737445,13.4940701 C13.612454,13.6279625 13.5950201,13.7010297 13.685253,13.7130477 C14.1018412,13.7677362 14.3967574,13.8985602 14.5703297,14.105392 L14.63288,14.2149926 C14.6815342,14.2940688 14.7301155,14.4340662 14.7787333,14.634793 C14.8272781,14.8355199 14.8586079,15.0575659 14.8723945,15.3008034 C14.9070433,15.7449914 14.9070433,16.1252218 14.8723945,16.4415263 C14.8376363,16.7579588 14.8048111,17.0042966 14.7734812,17.1807317 C14.7421514,17.3571668 14.6953208,17.5001367 14.63288,17.6096095 C14.5703297,17.7191143 14.5287147,17.7860446 14.5078524,17.8103364 C14.4870267,17.8346281 14.4696658,17.8499384 14.4558792,17.8559474 C14.3656464,17.8862482 14.2718028,17.9016863 14.1746767,17.9016863 C14.0774047,17.9016863 13.9594528,17.8590478 13.8206387,17.7738348 C13.681861,17.6886217 13.5378313,17.5715737 13.3885496,17.4224989 C13.2392679,17.2733921 13.0709111,17.0650261 12.8834063,16.797369 C12.6960473,16.5297119 12.5016492,16.2133754 12.3003213,15.8483594 L12.1337517,15.5836428 C12.0296229,15.4133447 11.8873803,15.1653767 11.7068782,14.8399627 C11.5262667,14.5144208 11.3666268,14.1995226 11.2278491,13.895332 C11.1723746,13.7675764 11.089035,13.6703133 10.9779764,13.6033831 L10.9258573,13.575927 C10.8912085,13.5516352 10.835588,13.5258412 10.7592877,13.4983531 C10.6828779,13.470897 10.6031491,13.4512078 10.5197731,13.4390939 L7.66657037,13.4572488 C7.37500966,13.4572488 7.17718313,13.5151336 7.07301783,13.6307433 L7.03132983,13.6854318 C7.01050406,13.7158924 7,13.7645399 7,13.8315021 C7,13.8984324 7.02082577,13.9805769 7.06251377,14.07784 C7.47902907,14.9357235 7.93198034,15.7630824 8.42136758,16.5600447 C8.91075483,17.3570069 9.33602352,17.9989812 9.69691834,18.4853922 C10.0578861,18.9721548 10.4258201,19.4315572 10.8007204,19.8633756 C11.1756206,20.2953538 11.4237791,20.5721843 11.5451959,20.693803 C11.6667585,20.8156455 11.7622434,20.9067396 11.8316504,20.967565 L12.0920272,21.1865426 C12.2586333,21.332581 12.5032905,21.5074818 12.8261081,21.7112451 C13.1489986,21.9151363 13.506465,22.1158631 13.8986897,22.3137453 C14.2909873,22.5113078 14.747367,22.6725285 15.268084,22.7972157 C15.7887282,22.9220307 16.2954763,22.9721165 16.7884014,22.9479526 L17.9859376,22.9479526 C18.2288076,22.929574 18.412811,22.8626437 18.537875,22.7471299 L18.5793077,22.701391 C18.6071727,22.6650812 18.6332505,22.6086667 18.6573223,22.5327549 C18.6816859,22.4567152 18.6937947,22.3729405 18.6937947,22.2818144 C18.6866826,22.0202622 18.7094049,21.784536 18.7613417,21.5746678 C18.813242,21.3648635 18.8724003,21.2066792 18.9385613,21.100147 C19.0046858,20.9937106 19.0793085,20.9038949 19.1623562,20.8310835 C19.2455863,20.7581123 19.3048905,20.7139076 19.3396852,20.6986933 C19.3742611,20.6833831 19.4018708,20.6729952 19.4226965,20.6667624 C19.5893026,20.6181149 19.7853785,20.6652282 20.0112159,20.808326 C20.2368709,20.9512959 20.4485205,21.1278268 20.6464929,21.3376311 C20.8443559,21.5476272 21.0820833,21.7832255 21.3597115,22.0447777 C21.6375221,22.3064258 21.8804286,22.5009199 22.0886133,22.6288672 L22.296798,22.738372 C22.4358309,22.8114392 22.6163331,22.8783694 22.8385232,22.9391948 C23.0603121,22.9999882 23.2546373,23.0152025 23.4214987,22.9848058 L26.0871602,22.9483681 C26.3508195,22.9483681 26.555977,22.9101086 26.701502,22.8341967 C26.8473188,22.7581571 26.9339409,22.6743824 26.9618788,22.5832562 C26.9897437,22.4920342 26.9912391,22.3885384 26.9671673,22.2728328 C26.9424754,22.1574149 26.9181483,22.0767086 26.8939306,22.0310976 Z" id="vk" fill="#FFFFFF"></path>
                    </g>
                </g>
            </g>
        </g>
    </g>
</svg>